<svg width="20" height="20" viewBox="0 0 20 20" fill="none" xmlns="http://www.w3.org/2000/svg">
    <path d="M8 8.5C8 7.94781 7.55219 7.5 7 7.5H6.5C5.39531 7.5 4.5 8.39531 4.5 9.5V11C4.5 12.1047 5.39531 13 6.5 13H7C7.55219 13 8 12.5522 8 12V8.5ZM13.5 13C14.6047 13 15.5 12.1047 15.5 11V9.5C15.5 8.39531 14.6047 7.5 13.5 7.5H13C12.4478 7.5 12 7.94781 12 8.5V12C12 12.5522 12.4478 13 13 13H13.5ZM10 2C5.53687 2 2.14312 5.71344 2 10V10.5C2 10.7763 2.22375 11 2.5 11H3C3.27625 11 3.5 10.7763 3.5 10.5V10C3.5 6.41594 6.41594 3.5 10 3.5C13.5841 3.5 16.5 6.41594 16.5 10H16.4963C16.4988 10.0759 16.5 15.1788 16.5 15.1788C16.5 15.9084 15.9084 16.5 15.1788 16.5H12C12 15.6716 11.3284 15 10.5 15H9.5C8.67156 15 8 15.6716 8 16.5C8 17.3284 8.67156 18 9.5 18H15.1788C16.7369 18 18 16.7369 18 15.1788V10C17.8569 5.71344 14.4631 2 10 2Z" fill="#42526E"/>
</svg>
